<?xml version="1.0" encoding="utf-8"?>
<!-- Generator: Adobe Illustrator 24.0.1, SVG Export Plug-In . SVG Version: 6.00 Build 0)  -->
<svg version="1.1" id="Layer_1" xmlns="http://www.w3.org/2000/svg" xmlns:xlink="http://www.w3.org/1999/xlink" x="0px" y="0px"
	 viewBox="0 0 128 128" style="enable-background:new 0 0 128 128;" xml:space="preserve">
<style type="text/css">
	.st0{fill:#12207C;}
	.st1{font-family:'SegoeUI-Bold';}
	.st2{font-size:17.3259px;}
</style>
<g>
	<path class="st0" d="M59.04,66.65c1.03,0.06,1.78,0.14,2.52,0.14c8.75,0.01,17.5,0.01,26.25,0.02c0.57,0,1.25-0.09,1.67,0.18
		c0.54,0.34,0.86,1.01,1.28,1.54c-0.49,0.38-0.95,0.83-1.49,1.13c-0.33,0.18-0.8,0.13-1.39,0.21c0.31,0.72,0.54,1.28,0.78,1.83
		c0.92,2.09,0.57,3.82-1.15,5.58c-1.86,1.91-3.81,2.43-5.92,1.59c-1.97-0.79-3.44-2.79-3.37-4.84c0.03-1.02,0.27-2.05,0.6-3.02
		c0.31-0.91,0.06-1.29-0.83-1.29c-3.28-0.02-6.56-0.02-9.84-0.01c-1.31,0-1.16,0.64-0.75,1.58c1.4,3.17-0.06,6.64-3.21,7.68
		c-2.45,0.81-4.3-0.13-5.9-2.01c-1.39-1.63-1.67-3.34-0.85-5.29c0.23-0.55,0.44-1.11,0.68-1.75c-0.44-0.1-0.71-0.18-0.98-0.22
		c-1.56-0.23-2.03-0.83-1.48-2.32c1.02-2.75,2.2-5.44,3.24-8.18c0.18-0.47,0.12-1.12-0.04-1.62c-2.91-8.68-5.84-17.36-8.79-26.03
		c-0.31-0.92-0.84-1.54-1.89-1.9c-2.1-0.72-4.16-1.61-6.13-2.65c-0.7-0.37-1.48-1.38-1.48-2.09c0-0.99,1.26-1.23,2.7-0.68
		c2.3,0.88,4.65,1.66,6.87,2.71c0.92,0.44,1.94,1.31,2.29,2.22c1.71,4.42,3.22,8.91,4.79,13.38c1.43,4.07,2.83,8.16,4.3,12.22
		c1.47,4.07,0.42,3.51,5,3.53c6.71,0.03,13.41,0.01,20.12,0c1.47,0,3.33-2.56,2.78-3.91c-0.12-0.29-0.74-0.52-1.14-0.53
		c-2.04-0.05-4.09-0.03-6.13-0.03c-4.61,0-9.23,0.02-13.84-0.03c-0.72-0.01-1.52-0.22-2.11-0.61c-0.41-0.28-0.82-1.11-0.68-1.52
		c0.17-0.52,0.84-0.96,1.39-1.23c0.38-0.19,0.93-0.07,1.41-0.07c7.04,0,14.08-0.03,21.12,0.03c1.16,0.01,1.76-0.34,2-1.47
		c0.18-0.83,0.49-1.64,0.75-2.45c0.36-1.13-0.05-1.58-1.22-1.57c-2.47,0.03-4.95,0.01-7.42,0.01c-5.71,0-11.41,0-17.12,0
		c-0.29,0-0.57-0.01-0.86,0c-1.15,0.06-2.16-0.2-2.38-1.49c-0.15-0.87,1.21-1.84,2.49-1.84c8.75-0.01,17.5,0,26.25-0.03
		c0.65,0,1.67-0.13,1.88-0.53c0.55-1.07,0.77-2.32,1.03-3.51c0.03-0.12-0.51-0.48-0.82-0.54c-0.46-0.1-0.95-0.04-1.42-0.04
		c-10.18,0-20.36,0-30.53,0c-0.43,0-0.86,0.02-1.28-0.03c-0.92-0.11-1.65-0.65-1.43-1.56c0.16-0.65,0.86-1.19,1.38-1.71
		c0.15-0.15,0.55-0.05,0.83-0.05c11.75,0.01,23.49,0,35.24,0.05c0.61,0,1.3,0.24,1.79,0.6c0.3,0.22,0.48,0.94,0.36,1.34
		c-1.77,5.91-3.58,11.8-5.4,17.69c-0.65,2.09-1.35,4.15-2.02,6.23c-0.55,1.71-1.3,2.28-3.13,2.28c-8.61,0-17.22,0.04-25.82-0.03
		c-1.51-0.01-2.3,0.45-2.6,1.93C59.81,64.57,59.43,65.45,59.04,66.65z M62.55,71.14c-1.65-0.02-2.63,0.9-2.64,2.46
		c-0.01,1.53,1.04,2.65,2.52,2.7c1.56,0.05,2.83-1.07,2.87-2.53C65.33,72.29,64.15,71.16,62.55,71.14z M86.17,73.73
		c0.01-1.51-1.06-2.56-2.62-2.57c-1.57-0.01-2.7,1-2.75,2.48c-0.05,1.49,1.15,2.66,2.73,2.67C85.06,76.31,86.16,75.23,86.17,73.73z"
		/>
	<path class="st0" d="M30.25,33.78c4.75,0,9.51,0,14.26,0c0.91,0,1.9-0.13,1.93,1.26c0.02,1.19-0.63,1.85-2,1.85
		c-9.56,0.01-19.11,0.01-28.67,0c-1.31,0-2.1-0.67-2-1.67c0.13-1.24,1.02-1.44,2.07-1.44c4.8,0.01,9.6,0.01,14.41,0.01
		C30.25,33.78,30.25,33.78,30.25,33.78z"/>
	<path class="st0" d="M38.77,45.42c-2.85,0-5.7,0-8.54,0c-0.43,0-1,0.11-1.25-0.11c-0.51-0.46-1.07-1.07-1.17-1.7
		c-0.06-0.35,0.66-0.98,1.15-1.25c0.41-0.24,1.01-0.2,1.53-0.2c5.7-0.01,11.39,0,17.09-0.01c1.13,0,2.16,0.1,2.26,1.53
		c0.08,1.13-0.71,1.74-2.23,1.75C44.66,45.43,41.72,45.42,38.77,45.42z"/>
	<path class="st0" d="M44.44,53.95c-2.47,0-4.94,0-7.42,0c-0.92,0-1.73-0.2-1.96-1.25c-0.28-1.22,0.32-1.96,1.57-1.95
		c5.18,0.04,10.36,0.09,15.54,0.13c0.81,0.01,1.69-0.12,1.65,1.15c-0.04,1.21-0.62,1.89-1.82,1.9
		C49.48,53.97,46.96,53.95,44.44,53.95z"/>
</g>
<text transform="matrix(1 0 0 1 7.814 103.3789)" class="st0 st1 st2">Manual Order</text>
</svg>
